# xmcd
#
# Track frame offsets: 
#        150
#        15167
#        39085
#        53461
#        68481
#        84172
#        103408
#        116910
#        135621
#        147741
#        168327
#        182855
#        205560
#        221812
#        237610
#        250557
#        269365
#        277030
#        286560
#        304945
#        313983
#        327478
#        339348
#
# Disc length: 4746 seconds
#
# Revision: 0
# Processed by: cddbd v1.5.2PL0 Copyright (c) Steve Scherf et al.
# Submitted via: ExactAudioCopy v0.99pb4
#
DISCID=51128817
DTITLE=Charlie Musselwhite - Stand Back! Here Comes Charley Musselwhit
DTITLE=e's Southside Band- 1967. The Harmonica According To Charlie- 1
DTITLE=978
DYEAR=2003
DGENRE=Blues
TTITLE0=Track01Baby Will You Please Help Me
TTITLE1=Track02No More Lonely Nights
TTITLE2=Track03Cha Cha The Blues
TTITLE3=Track04Christo Redemptor
TTITLE4=Track05Help Me
TTITLE5=Track06Chicken Shack
TTITLE6=Track07Strange Land
TTITLE7=Track0839th And Indiana
TTITLE8=Track09My Baby
TTITLE9=Track10Early In The Morning
TTITLE10=Track114 P.M
TTITLE11=Track12Sad Day
TTITLE12=Track13-Harpin' On A Riff
TTITLE13=Track14Run Here Mama
TTITLE14=Track15Tuff
TTITLE15=Track16Pistol In Your Face
TTITLE16=Track17Azul Para Ampar
TTITLE17=Track18Fast Life Blues
TTITLE18=Track19Way I Feel
TTITLE19=Track20-Blues In The Dark
TTITLE20=Track21Shelby County Blues
TTITLE21=Track22Scufflin'
TTITLE22=Track23Hard Times
EXTD=
EXTT0=
EXTT1=
EXTT2=
EXTT3=
EXTT4=
EXTT5=
EXTT6=
EXTT7=
EXTT8=
EXTT9=
EXTT10=
EXTT11=
EXTT12=
EXTT13=
EXTT14=
EXTT15=
EXTT16=
EXTT17=
EXTT18=
EXTT19=
EXTT20=
EXTT21=
EXTT22=
PLAYORDER=
